<svg width="20" height="21" viewBox="0 0 20 21" fill="none" xmlns="http://www.w3.org/2000/svg">
<path d="M10.8117 3.08691C10.8117 3.50131 10.647 3.89874 10.354 4.19177C10.061 4.48479 9.66357 4.64941 9.24917 4.64941C8.83477 4.64941 8.43734 4.48479 8.14431 4.19177C7.85129 3.89874 7.68667 3.50131 7.68667 3.08691C7.68667 2.67251 7.85129 2.27509 8.14431 1.98206C8.43734 1.68903 8.83477 1.52441 9.24917 1.52441C9.66357 1.52441 10.061 1.68903 10.354 1.98206C10.647 2.27509 10.8117 2.67251 10.8117 3.08691ZM12.0617 3.08691C12.0617 2.71757 11.9889 2.35184 11.8476 2.01062C11.7062 1.66939 11.4991 1.35934 11.2379 1.09818C10.9767 0.837011 10.6667 0.629844 10.3255 0.488503C9.98423 0.347161 9.61851 0.274414 9.24917 0.274414C8.87982 0.274414 8.5141 0.347161 8.17287 0.488503C7.83164 0.629844 7.52159 0.837011 7.26043 1.09818C6.99926 1.35934 6.7921 1.66939 6.65076 2.01062C6.50941 2.35184 6.43667 2.71757 6.43667 3.08691C6.43667 3.83284 6.73298 4.54821 7.26043 5.07565C7.78788 5.6031 8.50325 5.89941 9.24917 5.89941C9.99509 5.89941 10.7105 5.6031 11.2379 5.07565C11.7653 4.54821 12.0617 3.83284 12.0617 3.08691ZM15.1242 9.33358C14.9372 9.33419 14.7526 9.29253 14.5841 9.21171C14.4155 9.1309 14.2674 9.01303 14.1508 8.86691C13.4896 8.0355 12.6487 7.36449 11.6913 6.90412C10.734 6.44376 9.68482 6.20597 8.6225 6.20858C7.1315 6.21057 5.70217 6.80392 4.6481 7.85845C3.59404 8.91298 3.00132 10.3426 3 11.8336C3 12.0798 3.0485 12.3236 3.14273 12.5511C3.23695 12.7786 3.37507 12.9853 3.54917 13.1594C3.72328 13.3335 3.92998 13.4716 4.15747 13.5659C4.38495 13.6601 4.62877 13.7086 4.875 13.7086C5.12123 13.7086 5.36505 13.6601 5.59253 13.5659C5.82002 13.4716 6.02672 13.3335 6.20083 13.1594C6.37494 12.9853 6.51305 12.7786 6.60727 12.5511C6.7015 12.3236 6.75 12.0798 6.75 11.8336C6.75162 11.4186 6.89059 11.0158 7.1452 10.688C7.39982 10.3603 7.75577 10.1261 8.1575 10.0219L8 9.41691H7.375V9.83358C7.37721 12.4024 6.61675 14.9141 5.19 17.0502C5.04738 17.2552 4.94709 17.4865 4.895 17.7307C4.84292 17.9749 4.84008 18.227 4.88666 18.4723C4.93324 18.7176 5.0283 18.9511 5.16627 19.1592C5.30424 19.3673 5.48235 19.5458 5.69016 19.6842C5.89798 19.8226 6.13132 19.9181 6.37652 19.9652C6.62172 20.0123 6.87385 20.01 7.11814 19.9584C7.36243 19.9068 7.59397 19.807 7.7992 19.6648C8.00443 19.5226 8.17922 19.3408 8.31333 19.1302C9.13464 17.8975 9.78921 16.5614 10.26 15.1569L9.33417 15.4869C10.5153 16.2321 11.4035 17.3617 11.8492 18.6852C12.135 19.6561 13.1783 20.2236 14.1717 19.9302C14.4183 19.8573 14.6473 19.7344 14.8444 19.5692C15.0415 19.404 15.2025 19.1999 15.3174 18.9698C15.4323 18.7397 15.4986 18.4885 15.5123 18.2316C15.5259 17.9748 15.4866 17.7179 15.3967 17.4769C14.5796 15.0557 12.85 13.0489 10.5758 11.8836L10.9075 12.5402C11.0533 11.6452 11.1267 10.7402 11.1267 9.83358V9.80858H10.5017L10.205 10.3586C10.5987 10.5708 10.9453 10.8605 11.2242 11.2102C11.6916 11.7974 12.2859 12.2713 12.9624 12.5963C13.639 12.9213 14.3803 13.089 15.1308 13.0869C15.6281 13.0867 16.1049 12.8889 16.4564 12.5371C16.8079 12.1854 17.0052 11.7084 17.005 11.2111C17.0048 10.7138 16.807 10.237 16.4552 9.8855C16.1034 9.53402 15.6264 9.33669 15.1292 9.33691V9.96191L15.6292 9.58691L15.6267 9.58358C15.5683 9.50573 15.4925 9.44259 15.4054 9.39919C15.3183 9.35579 15.2215 9.33332 15.1242 9.33358ZM15.1275 10.5836L15.1258 9.95858L14.6258 10.3336L14.6283 10.3369C14.6866 10.4145 14.762 10.4775 14.8488 10.5209C14.9356 10.5643 15.0313 10.5869 15.1283 10.5869C15.2941 10.5869 15.4531 10.6528 15.5703 10.77C15.6875 10.8872 15.7533 11.0462 15.7533 11.2119C15.7533 11.3777 15.6875 11.5366 15.5703 11.6539C15.4531 11.7711 15.2941 11.8369 15.1283 11.8369C14.5659 11.8386 14.0104 11.713 13.5034 11.4696C12.9964 11.2261 12.5511 10.8711 12.2008 10.4311C11.8169 9.94963 11.3395 9.5508 10.7975 9.25858C10.7023 9.20724 10.5954 9.18148 10.4873 9.18383C10.3791 9.18618 10.2734 9.21655 10.1806 9.27198C10.0877 9.32741 10.0108 9.40599 9.95735 9.50005C9.90394 9.59411 9.87585 9.70042 9.87583 9.80858V9.83358C9.87583 10.6727 9.80833 11.5102 9.67333 12.3386C9.65207 12.469 9.67272 12.6029 9.73232 12.7209C9.79191 12.8389 9.88738 12.9349 10.005 12.9952C12.0147 14.0263 13.5363 15.8087 14.2392 17.9552C14.2624 18.034 14.2699 18.1165 14.2613 18.1982C14.2526 18.2798 14.228 18.359 14.1888 18.4311C14.1495 18.5032 14.0965 18.5669 14.0326 18.6185C13.9688 18.6701 13.8954 18.7087 13.8167 18.7319C13.7379 18.7552 13.6554 18.7627 13.5737 18.754C13.4921 18.7454 13.413 18.7207 13.3408 18.6815C13.2687 18.6423 13.205 18.5892 13.1534 18.5254C13.1018 18.4615 13.0633 18.3881 13.04 18.3094C12.5043 16.7045 11.4303 15.3341 10 14.4302C9.91992 14.3798 9.82943 14.3481 9.73535 14.3378C9.64126 14.3274 9.54605 14.3385 9.45689 14.3703C9.36773 14.402 9.28695 14.4537 9.22065 14.5212C9.15435 14.5888 9.10426 14.6705 9.07417 14.7602C8.63838 16.0599 8.03257 17.2962 7.2725 18.4369C7.17816 18.5695 7.03592 18.6602 6.87588 18.6899C6.71585 18.7195 6.55057 18.6857 6.41502 18.5956C6.27947 18.5055 6.18428 18.3662 6.1496 18.2072C6.11491 18.0482 6.14344 17.8819 6.22917 17.7436C7.79307 15.4019 8.62661 12.6486 8.62417 9.83275V9.41691C8.62419 9.3214 8.60233 9.22716 8.56026 9.14142C8.51818 9.05567 8.45702 8.98071 8.38146 8.92229C8.3059 8.86387 8.21795 8.82355 8.12438 8.80441C8.03081 8.78528 7.93409 8.78784 7.84167 8.81191C7.17263 8.98603 6.58007 9.37674 6.15645 9.92307C5.73284 10.4694 5.50201 11.1406 5.5 11.8319C5.50011 11.914 5.48405 11.9953 5.45274 12.0712C5.42144 12.147 5.37549 12.216 5.31753 12.2741C5.25957 12.3322 5.19073 12.3783 5.11495 12.4099C5.03916 12.4414 4.95791 12.4576 4.87583 12.4577C4.79376 12.4579 4.71246 12.4418 4.63659 12.4105C4.56072 12.3792 4.49176 12.3332 4.43365 12.2753C4.37553 12.2173 4.3294 12.1485 4.29789 12.0727C4.26638 11.9969 4.25011 11.9157 4.25 11.8336C4.25132 10.6737 4.71268 9.56163 5.53287 8.74145C6.35305 7.92126 7.46508 7.4599 8.625 7.45858C9.49913 7.45613 10.3625 7.65158 11.1503 8.03028C11.9382 8.40897 12.6301 8.96109 13.1742 9.64525C13.4081 9.93879 13.7054 10.1757 14.0438 10.3381C14.3822 10.5006 14.7521 10.5845 15.1275 10.5836Z" fill="#262626"/>
</svg>
