<svg width="63" height="63" viewBox="0 0 63 63" fill="none" xmlns="http://www.w3.org/2000/svg">
<mask id="mask0_55_58" style="mask-type:luminance" maskUnits="userSpaceOnUse" x="13" y="16" width="37" height="30">
<path d="M49.049 16.3906H13.2031V45.5217H49.049V16.3906Z" fill="white"/>
</mask>
<g mask="url(#mask0_55_58)">
<path d="M49.049 20.6888C47.7302 21.2738 46.3127 21.669 44.8253 21.8468C46.3435 20.9366 47.5098 19.4954 48.0588 17.7781C46.6377 18.621 45.0638 19.2329 43.3886 19.5627C42.0472 18.1333 40.1359 17.2404 38.0206 17.2404C33.9593 17.2404 30.6663 20.533 30.6663 24.5943C30.6663 25.1708 30.7314 25.7321 30.8568 26.2703C24.7447 25.9637 19.3259 23.0358 15.6986 18.5864C15.0656 19.6725 14.7028 20.9357 14.7028 22.2835C14.7028 24.8351 16.0012 27.086 17.9745 28.4048C16.769 28.3666 15.635 28.0357 14.6435 27.485C14.6427 27.5156 14.6427 27.5464 14.6427 27.5775C14.6427 31.1405 17.1777 34.1127 20.542 34.7888C19.9249 34.9569 19.2752 35.0467 18.6045 35.0467C18.1307 35.0467 17.6701 35.0004 17.2209 34.9148C18.1568 37.8364 20.8727 39.9626 24.091 40.0217C21.574 41.9943 18.4031 43.1701 14.9574 43.1701C14.3638 43.1701 13.7784 43.1351 13.2031 43.0672C16.4577 45.154 20.3234 46.3715 24.4765 46.3715C38.0035 46.3715 45.4008 35.1655 45.4008 25.4469C45.4008 25.1281 45.3937 24.811 45.3795 24.4954C46.8162 23.4587 48.063 22.1636 49.049 20.6888Z" fill="#1DA1F2"/>
</g>
</svg>
