<svg width="63" height="63" viewBox="0 0 63 63" fill="none" xmlns="http://www.w3.org/2000/svg">
<mask id="mask0_57_379" style="mask-type:luminance" maskUnits="userSpaceOnUse" x="13" y="16" width="37" height="30">
<path d="M49.049 16.3906H13.2031V45.5217H49.049V16.3906Z" fill="white"/>
</mask>
<g mask="url(#mask0_57_379)">
<path d="M49.049 20.6887C47.7302 21.2737 46.3127 21.6689 44.8253 21.8467C46.3435 20.9365 47.5098 19.4953 48.0588 17.778C46.6377 18.6209 45.0638 19.2328 43.3886 19.5626C42.0472 18.1332 40.1359 17.2403 38.0206 17.2403C33.9593 17.2403 30.6663 20.5329 30.6663 24.5942C30.6663 25.1707 30.7314 25.732 30.8568 26.2702C24.7447 25.9636 19.3259 23.0357 15.6986 18.5863C15.0656 19.6724 14.7028 20.9356 14.7028 22.2834C14.7028 24.835 16.0012 27.0859 17.9745 28.4047C16.769 28.3665 15.635 28.0356 14.6435 27.4849C14.6427 27.5155 14.6427 27.5463 14.6427 27.5774C14.6427 31.1404 17.1777 34.1126 20.542 34.7887C19.9249 34.9568 19.2752 35.0466 18.6045 35.0466C18.1307 35.0466 17.6701 35.0003 17.2209 34.9147C18.1568 37.8363 20.8727 39.9625 24.091 40.0216C21.574 41.9942 18.4031 43.17 14.9574 43.17C14.3638 43.17 13.7784 43.135 13.2031 43.0671C16.4577 45.1539 20.3234 46.3714 24.4765 46.3714C38.0035 46.3714 45.4008 35.1654 45.4008 25.4468C45.4008 25.128 45.3937 24.8109 45.3795 24.4953C46.8162 23.4586 48.063 22.1635 49.049 20.6887Z" fill="#1DA1F2"/>
</g>
</svg>
