<svg width="18" height="21" viewBox="0 0 18 21" fill="none" xmlns="http://www.w3.org/2000/svg">
<g clip-path="url(#clip0_179_1569)">
<path d="M1.60106 5.65319C-0.958946 9.8132 5.06772 14.8532 8.40108 16.8532C9.06792 16.5865 10.7216 15.8132 12.0016 14.8532C13.6016 13.6532 15.6016 11.2532 16.0016 8.05322C16.4015 4.85322 14.8016 4.05298 13.2016 2.85298C11.9216 1.89298 9.46824 2.98645 8.40156 3.65318C7.20138 2.58652 4.16105 1.49318 1.60106 5.65319Z" fill="white"/>
<path fill-rule="evenodd" clip-rule="evenodd" d="M8.58874 2.88452C9.88954 2.06212 11.6175 1.83492 13.1103 2.31332C16.3575 3.36051 17.3655 6.90051 16.4639 9.71732C15.0727 14.1413 9.13114 17.4413 8.87914 17.5797C8.7895 17.6293 8.69032 17.6541 8.59114 17.6541C8.4919 17.6541 8.3935 17.6301 8.30392 17.5813C8.05354 17.4445 2.15512 14.1933 0.717521 9.7181L0.716723 9.71732C-0.185678 6.89972 0.81912 3.35892 4.06312 2.31332C5.58632 1.82052 7.2463 2.03732 8.58874 2.88452ZM4.43113 3.45572C1.80632 4.30212 1.14712 7.12532 1.85992 9.35174C2.98152 12.8413 7.41274 15.6629 8.5903 16.3613C9.77194 15.6557 14.2351 12.8029 15.3207 9.35492C16.0335 7.12612 15.3719 4.30292 12.7431 3.45572C11.4695 3.04692 9.98392 3.29571 8.95834 4.08932C8.7439 4.25412 8.4463 4.25732 8.2303 4.09412C7.14394 3.27732 5.72473 3.03812 4.43113 3.45572ZM11.9751 5.04444C13.0655 5.39724 13.8295 6.36284 13.9231 7.50444C13.9495 7.83483 13.7039 8.12444 13.3735 8.15084C13.3567 8.15246 13.3407 8.15324 13.3239 8.15324C13.0143 8.15324 12.7519 7.91564 12.7263 7.60203C12.6735 6.94443 12.2335 6.38924 11.6071 6.18684C11.2911 6.08444 11.1183 5.74604 11.2199 5.43164C11.3231 5.11644 11.6583 4.94523 11.9751 5.04444Z" fill="#292D32"/>
<path fill-rule="evenodd" clip-rule="evenodd" d="M11.9751 5.04424C13.0655 5.39704 13.8295 6.36264 13.9231 7.50424C13.9495 7.83464 13.7039 8.12425 13.3735 8.15065C13.3567 8.15227 13.3407 8.15305 13.3239 8.15305C13.0143 8.15305 12.7519 7.91544 12.7263 7.60184C12.6735 6.94424 12.2335 6.38904 11.6071 6.18664C11.2911 6.08424 11.1183 5.74584 11.2199 5.43144C11.3231 5.11624 11.6583 4.94504 11.9751 5.04424Z" fill="#292D32"/>
</g>
<defs>
<clipPath id="clip0_179_1569">
<rect width="18" height="20" fill="white" transform="translate(0 0.453125)"/>
</clipPath>
</defs>
</svg>
