<svg width="24" height="25" viewBox="0 0 24 25" fill="none" xmlns="http://www.w3.org/2000/svg">
<path d="M22.275 22.0524L16.4625 16.2399C16.3241 16.0986 16.1354 16.0177 15.9375 16.0149C17.3517 14.406 18.0847 12.3101 17.9814 10.1705C17.8781 8.03089 16.9466 6.01535 15.384 4.55015C13.8214 3.08495 11.7501 2.28498 9.6083 2.31943C7.46648 2.35387 5.42203 3.22004 3.90734 4.73473C2.39265 6.24942 1.52648 8.29387 1.49203 10.4357C1.45759 12.5775 2.25756 14.6488 3.72276 16.2114C5.18796 17.774 7.20349 18.7055 9.3431 18.8088C11.4827 18.9121 13.5786 18.1791 15.1875 16.7649C15.1904 16.9628 15.2712 17.1515 15.4125 17.2899L21.225 23.1024C21.3688 23.2306 21.5564 23.2986 21.7489 23.2922C21.9414 23.2858 22.1241 23.2056 22.2591 23.0682C22.3941 22.9308 22.4711 22.7467 22.474 22.5541C22.477 22.3615 22.4057 22.1752 22.275 22.0337V22.0524ZM9.75003 17.3274C8.41501 17.3274 7.10997 16.9315 5.99993 16.1898C4.8899 15.4481 4.02474 14.3939 3.51385 13.1605C3.00296 11.9271 2.86928 10.5699 3.12973 9.26057C3.39018 7.95119 4.03306 6.74846 4.97706 5.80446C5.92107 4.86045 7.1238 4.21758 8.43317 3.95713C9.74255 3.69668 11.0997 3.83035 12.3331 4.34124C13.5665 4.85213 14.6208 5.7173 15.3625 6.82733C16.1042 7.93736 16.5 9.2424 16.5 10.5774C16.5 12.3676 15.7889 14.0845 14.523 15.3504C13.2571 16.6163 11.5402 17.3274 9.75003 17.3274Z" fill="#262626"/>
</svg>
