<svg width="24" height="25" viewBox="0 0 24 25" fill="none" xmlns="http://www.w3.org/2000/svg">
<path d="M18 10.279C18 10.479 17.922 10.669 17.78 10.809L12.78 15.809C12.678 15.9119 12.5565 15.9932 12.4225 16.0482C12.2885 16.1032 12.1448 16.1306 12 16.129C11.8553 16.1295 11.7119 16.1016 11.5781 16.0467C11.4442 15.9917 11.3225 15.911 11.22 15.809L6.21995 10.809C6.0795 10.6683 6.00061 10.4777 6.00061 10.279C6.00061 10.0802 6.0795 9.88959 6.21995 9.74896C6.2889 9.6782 6.37131 9.62197 6.46234 9.58357C6.55336 9.54517 6.65116 9.52539 6.74995 9.52539C6.84874 9.52539 6.94654 9.54517 7.03756 9.58357C7.12859 9.62197 7.211 9.6782 7.27995 9.74896L12 14.469L16.7199 9.74896C16.7889 9.6782 16.8713 9.62197 16.9623 9.58357C17.0534 9.54517 17.1512 9.52539 17.25 9.52539C17.3487 9.52539 17.4465 9.54517 17.5376 9.58357C17.6286 9.62197 17.711 9.6782 17.78 9.74896C17.8505 9.81786 17.9064 9.90035 17.9442 9.99144C17.982 10.0825 18.001 10.1803 18 10.279Z" fill="#262626"/>
</svg>
