<svg width="16" height="17" viewBox="0 0 16 17" fill="none" xmlns="http://www.w3.org/2000/svg">
<path d="M12 7.12738C12 7.26071 11.948 7.38738 11.8534 7.48071L8.52005 10.814C8.45211 10.8827 8.37106 10.9369 8.28173 10.9736C8.19239 11.0102 8.0966 11.0285 8.00005 11.0274C7.9036 11.0278 7.80803 11.0091 7.7188 10.9725C7.62957 10.9359 7.54844 10.8821 7.48005 10.814L4.14671 7.48071C4.05308 7.38696 4.00049 7.25988 4.00049 7.12738C4.00049 6.99488 4.05308 6.8678 4.14671 6.77405C4.19268 6.72688 4.24762 6.68938 4.30831 6.66379C4.36899 6.63819 4.43419 6.625 4.50005 6.625C4.56591 6.625 4.63111 6.63819 4.69179 6.66379C4.75247 6.68938 4.80742 6.72688 4.85338 6.77405L8.00005 9.92071L11.1467 6.77405C11.1927 6.72688 11.2476 6.68938 11.3083 6.66379C11.369 6.63819 11.4342 6.625 11.5 6.625C11.5659 6.625 11.6311 6.63819 11.6918 6.66379C11.7525 6.68938 11.8074 6.72688 11.8534 6.77405C11.9004 6.81998 11.9377 6.87497 11.9629 6.9357C11.9881 6.99643 12.0007 7.06163 12 7.12738Z" fill="#262626"/>
</svg>
