<svg width="20" height="21" viewBox="0 0 20 21" fill="none" xmlns="http://www.w3.org/2000/svg">
<path d="M11.875 15.8744C11.875 16.3717 11.6775 16.8486 11.3258 17.2002C10.9742 17.5518 10.4973 17.7494 10 17.7494C9.50273 17.7494 9.02582 17.5518 8.67418 17.2002C8.32255 16.8486 8.12501 16.3717 8.12501 15.8744C8.12501 15.3771 8.32255 14.9002 8.67418 14.5485C9.02582 14.1969 9.50273 13.9994 10 13.9994C10.4973 13.9994 10.9742 14.1969 11.3258 14.5485C11.6775 14.9002 11.875 15.3771 11.875 15.8744ZM13.125 15.8744C13.125 15.0456 12.7958 14.2507 12.2097 13.6647C11.6237 13.0786 10.8288 12.7494 10 12.7494C9.17121 12.7494 8.37635 13.0786 7.7903 13.6647C7.20425 14.2507 6.87501 15.0456 6.87501 15.8744C6.87501 16.7032 7.20425 17.498 7.7903 18.0841C8.37635 18.6701 9.17121 18.9994 10 18.9994C10.8288 18.9994 11.6237 18.6701 12.2097 18.0841C12.7958 17.498 13.125 16.7032 13.125 15.8744ZM14.8583 11.0135C13.5691 9.72455 11.8206 9.00043 9.99751 9.00043C8.1744 9.00043 6.42595 9.72455 5.13668 11.0135C5.02628 11.132 4.96617 11.2887 4.96903 11.4506C4.97189 11.6126 5.03748 11.767 5.15199 11.8816C5.2665 11.9961 5.42099 12.0617 5.58291 12.0645C5.74483 12.0674 5.90153 12.0073 6.02001 11.8969C6.54234 11.3745 7.16244 10.9602 7.8449 10.6775C8.52736 10.3948 9.25882 10.2493 9.99751 10.2493C10.7362 10.2493 11.4677 10.3948 12.1501 10.6775C12.8326 10.9602 13.4527 11.3745 13.975 11.8969C14.0935 12.0073 14.2502 12.0674 14.4121 12.0645C14.574 12.0617 14.7285 11.9961 14.843 11.8816C14.9575 11.767 15.0231 11.6126 15.026 11.4506C15.0288 11.2887 14.9687 11.132 14.8583 11.0135ZM17.5125 8.36187C13.3633 4.21187 6.63668 4.21187 2.48751 8.36187C2.4261 8.41909 2.37685 8.48809 2.34269 8.56476C2.30853 8.64143 2.29016 8.72419 2.28868 8.80811C2.2872 8.89203 2.30264 8.97538 2.33407 9.05321C2.36551 9.13103 2.4123 9.20172 2.47164 9.26107C2.53099 9.32042 2.60169 9.36721 2.67951 9.39864C2.75734 9.43008 2.84069 9.44552 2.92461 9.44403C3.00853 9.44255 3.09129 9.42419 3.16796 9.39003C3.24462 9.35587 3.31363 9.30661 3.37084 9.24521C7.03251 5.58438 12.9675 5.58438 16.6292 9.24521C16.6864 9.30661 16.7554 9.35587 16.8321 9.39003C16.9087 9.42419 16.9915 9.44255 17.0754 9.44403C17.1593 9.44552 17.2427 9.43008 17.3205 9.39864C17.3983 9.36721 17.469 9.32042 17.5284 9.26107C17.5877 9.20172 17.6345 9.13103 17.6659 9.05321C17.6974 8.97538 17.7128 8.89203 17.7113 8.80811C17.7099 8.72419 17.6915 8.64143 17.6573 8.56476C17.6232 8.48809 17.5739 8.41909 17.5125 8.36187ZM19.8008 5.35938C14.28 0.213542 5.72001 0.213542 0.20001 5.35938C0.13589 5.41409 0.0834999 5.48121 0.0459929 5.5567C0.00848588 5.63219 -0.0133633 5.71449 -0.0182402 5.79864C-0.023117 5.88279 -0.0109208 5.96706 0.0176147 6.04638C0.0461503 6.1257 0.0904355 6.19842 0.147806 6.26018C0.205177 6.32194 0.274447 6.37145 0.35145 6.40574C0.428453 6.44004 0.511597 6.4584 0.59588 6.45972C0.680163 6.46105 0.763844 6.44531 0.841887 6.41346C0.919931 6.38161 0.990725 6.3343 1.05001 6.27437C6.09168 1.57604 13.9075 1.57604 18.9483 6.27437C19.0084 6.3303 19.0789 6.37384 19.1558 6.40251C19.2327 6.43118 19.3145 6.44443 19.3966 6.44149C19.4786 6.43855 19.5592 6.41948 19.6339 6.38537C19.7085 6.35127 19.7758 6.30279 19.8317 6.24271C19.8876 6.18263 19.9311 6.11212 19.9598 6.03522C19.9885 5.95831 20.0017 5.87651 19.9988 5.79448C19.9958 5.71246 19.9768 5.63182 19.9427 5.55716C19.9086 5.4825 19.8609 5.4153 19.8008 5.35938Z" fill="#008009"/>
</svg>
