<svg width="63" height="63" viewBox="0 0 63 63" fill="none" xmlns="http://www.w3.org/2000/svg">
<mask id="mask0_55_34" style="mask-type:luminance" maskUnits="userSpaceOnUse" x="14" y="14" width="34" height="34">
<path d="M47.9099 14.3906H14.5938V47.7067H47.9099V14.3906Z" fill="white"/>
</mask>
<g mask="url(#mask0_55_34)">
<path d="M47.5558 31.4235C47.5558 30.3268 47.4586 29.2857 47.292 28.2723H31.6057V34.533H40.5872C40.1846 36.5875 39.0046 38.3227 37.2556 39.5026V43.6671H42.6139C45.7512 40.7658 47.5558 36.4903 47.5558 31.4235Z" fill="#4285F4"/>
<path d="M31.6058 47.7069C36.1035 47.7069 39.8654 46.2076 42.614 43.6673L37.2557 39.5028C35.7565 40.5023 33.8547 41.1131 31.6058 41.1131C27.2609 41.1131 23.5822 38.184 22.2634 34.2277H16.7385V38.5172C19.4732 43.9588 25.0953 47.7069 31.6058 47.7069Z" fill="#34A853"/>
<path d="M22.2634 34.2276C21.9164 33.2281 21.7359 32.1592 21.7359 31.0486C21.7359 29.9381 21.9302 28.8692 22.2634 27.8697V23.5803H16.7385C15.6002 25.8291 14.9478 28.3556 14.9478 31.0486C14.9478 33.7417 15.6002 36.2682 16.7385 38.517L22.2634 34.2276Z" fill="#FBBC05"/>
<path d="M31.6058 20.9844C34.0629 20.9844 36.2562 21.8312 37.9914 23.4831L42.739 18.7356C39.8654 16.0425 36.1035 14.3906 31.6058 14.3906C25.0953 14.3906 19.4732 18.1387 16.7385 23.5803L22.2634 27.8697C23.5822 23.9135 27.2609 20.9844 31.6058 20.9844Z" fill="#EA4335"/>
</g>
</svg>
