<svg width="25" height="25" viewBox="0 0 25 25" fill="none" xmlns="http://www.w3.org/2000/svg">
<g clip-path="url(#clip0_179_2730)">
<path d="M23.375 8.38347C23.1961 7.29704 22.6916 6.29051 21.9283 5.49703C21.1649 4.70354 20.1787 4.1605 19.1 3.93972C17.9527 3.74385 16.7737 3.86768 15.6921 4.29765C14.6106 4.72762 13.6684 5.44711 12.9687 6.37722C12.2705 5.44549 11.3285 4.72479 10.2465 4.29466C9.16458 3.86453 7.98483 3.7417 6.83748 3.93972C5.75879 4.1605 4.77253 4.70354 4.00918 5.49703C3.24583 6.29051 2.74135 7.29704 2.56248 8.38347C2.31873 9.73347 2.44998 11.9085 4.32498 14.6272C6.55351 17.5486 9.37051 19.9695 12.5937 21.7335C12.7056 21.8053 12.8358 21.8436 12.9687 21.8436C13.1017 21.8436 13.2319 21.8053 13.3437 21.7335C17.1312 19.4835 19.9062 17.0835 21.6125 14.6085C23.4875 11.9085 23.6187 9.73347 23.3937 8.38347H23.375ZM12.9687 20.196C6.78123 16.4272 3.44373 12.1335 4.02498 8.64597C4.14058 7.84318 4.50478 7.09677 5.0664 6.51161C5.62803 5.92644 6.35886 5.53192 7.15623 5.38347C7.43422 5.32997 7.71692 5.30485 7.99998 5.30847C9.64998 5.30847 11.2437 6.28347 12.35 8.04597C12.4193 8.15128 12.5141 8.2374 12.6255 8.29639C12.7369 8.35539 12.8614 8.38533 12.9875 8.38347C13.1135 8.38533 13.238 8.35539 13.3495 8.29639C13.4609 8.2374 13.5557 8.15128 13.625 8.04597C14.75 6.28347 16.325 5.30847 17.975 5.30847C18.2587 5.31102 18.5414 5.34243 18.8187 5.40222C19.6073 5.55194 20.3301 5.94248 20.8875 6.52005C21.445 7.09762 21.8096 7.8338 21.9312 8.62722C22.4937 12.1147 19.1562 16.4272 12.9687 20.196Z" fill="#0071C2"/>
</g>
<defs>
<clipPath id="clip0_179_2730">
<rect width="24" height="24" fill="white" transform="translate(0.96875 0.828125)"/>
</clipPath>
</defs>
</svg>
