<svg width="20" height="21" viewBox="0 0 20 21" fill="none" xmlns="http://www.w3.org/2000/svg">
<path d="M4.79167 1.38574H15.2083C15.7833 1.38574 16.25 1.85241 16.25 2.42741V13.6774C16.25 13.7327 16.2281 13.7857 16.189 13.8247C16.1499 13.8638 16.0969 13.8857 16.0417 13.8857H3.95833C3.90308 13.8857 3.85009 13.8638 3.81102 13.8247C3.77195 13.7857 3.75 13.7327 3.75 13.6774V2.42741C3.75 1.85241 4.21667 1.38574 4.79167 1.38574ZM4.79167 0.135742C4.18388 0.135742 3.60098 0.377185 3.17121 0.806956C2.74144 1.23673 2.5 1.81962 2.5 2.42741V13.6774C2.5 14.4824 3.15333 15.1357 3.95833 15.1357H16.0417C16.4284 15.1357 16.7994 14.9821 17.0729 14.7086C17.3464 14.4351 17.5 14.0642 17.5 13.6774V2.42741C17.5 1.81962 17.2586 1.23673 16.8288 0.806956C16.399 0.377185 15.8161 0.135742 15.2083 0.135742H4.79167ZM1.75 19.8857L3.625 17.3857C3.67425 17.3201 3.71008 17.2454 3.73045 17.1659C3.75082 17.0863 3.75533 17.0036 3.74372 16.9224C3.73211 16.8411 3.70461 16.7629 3.6628 16.6923C3.62098 16.6217 3.56566 16.56 3.5 16.5107C3.43434 16.4615 3.35962 16.4257 3.28011 16.4053C3.2006 16.3849 3.11786 16.3804 3.03661 16.392C2.95536 16.4036 2.87719 16.4311 2.80657 16.4729C2.73594 16.5148 2.67425 16.5701 2.625 16.6357L0.75 19.1357C0.700754 19.2014 0.664924 19.2761 0.644554 19.3556C0.624184 19.4351 0.619674 19.5179 0.631282 19.5991C0.642889 19.6804 0.670386 19.7586 0.712203 19.8292C0.754021 19.8998 0.809339 19.9615 0.875 20.0107C0.940661 20.06 1.01538 20.0958 1.09489 20.1162C1.1744 20.1366 1.25714 20.1411 1.33839 20.1295C1.41964 20.1179 1.49781 20.0904 1.56843 20.0485C1.63906 20.0067 1.70075 19.9514 1.75 19.8857ZM19.25 19.1357L17.375 16.6357C17.3258 16.5701 17.2641 16.5148 17.1934 16.4729C17.1228 16.4311 17.0446 16.4036 16.9634 16.392C16.8821 16.3804 16.7994 16.3849 16.7199 16.4053C16.6404 16.4257 16.5657 16.4615 16.5 16.5107C16.4343 16.56 16.379 16.6217 16.3372 16.6923C16.2954 16.7629 16.2679 16.8411 16.2563 16.9224C16.2447 17.0036 16.2492 17.0863 16.2696 17.1659C16.2899 17.2454 16.3258 17.3201 16.375 17.3857L18.25 19.8857C18.2992 19.9514 18.3609 20.0067 18.4316 20.0485C18.5022 20.0904 18.5804 20.1179 18.6616 20.1295C18.7429 20.1411 18.8256 20.1366 18.9051 20.1162C18.9846 20.0958 19.0593 20.06 19.125 20.0107C19.1907 19.9615 19.246 19.8998 19.2878 19.8292C19.3296 19.7586 19.3571 19.6804 19.3687 19.5991C19.3803 19.5179 19.3758 19.4351 19.3554 19.3556C19.3351 19.2761 19.2992 19.2014 19.25 19.1357ZM3.125 8.88574H16.875C17.0408 8.88574 17.1997 8.81989 17.3169 8.70268C17.4342 8.58547 17.5 8.4265 17.5 8.26074C17.5 8.09498 17.4342 7.93601 17.3169 7.8188C17.1997 7.70159 17.0408 7.63574 16.875 7.63574H3.125C2.95924 7.63574 2.80027 7.70159 2.68306 7.8188C2.56585 7.93601 2.5 8.09498 2.5 8.26074C2.5 8.4265 2.56585 8.58547 2.68306 8.70268C2.80027 8.81989 2.95924 8.88574 3.125 8.88574ZM9.375 0.760742V8.26074C9.375 8.4265 9.44085 8.58547 9.55806 8.70268C9.67527 8.81989 9.83424 8.88574 10 8.88574C10.1658 8.88574 10.3247 8.81989 10.4419 8.70268C10.5592 8.58547 10.625 8.4265 10.625 8.26074V0.760742C10.625 0.594982 10.5592 0.436011 10.4419 0.3188C10.3247 0.20159 10.1658 0.135742 10 0.135742C9.83424 0.135742 9.67527 0.20159 9.55806 0.3188C9.44085 0.436011 9.375 0.594982 9.375 0.760742ZM3.125 11.3857H6.25C6.41576 11.3857 6.57473 11.3199 6.69194 11.2027C6.80915 11.0855 6.875 10.9265 6.875 10.7607C6.875 10.595 6.80915 10.436 6.69194 10.3188C6.57473 10.2016 6.41576 10.1357 6.25 10.1357H3.125C2.95924 10.1357 2.80027 10.2016 2.68306 10.3188C2.56585 10.436 2.5 10.595 2.5 10.7607C2.5 10.9265 2.56585 11.0855 2.68306 11.2027C2.80027 11.3199 2.95924 11.3857 3.125 11.3857ZM16.875 10.1357H13.75C13.5842 10.1357 13.4253 10.2016 13.3081 10.3188C13.1908 10.436 13.125 10.595 13.125 10.7607C13.125 10.9265 13.1908 11.0855 13.3081 11.2027C13.4253 11.3199 13.5842 11.3857 13.75 11.3857H16.875C17.0408 11.3857 17.1997 11.3199 17.3169 11.2027C17.4342 11.0855 17.5 10.9265 17.5 10.7607C17.5 10.595 17.4342 10.436 17.3169 10.3188C17.1997 10.2016 17.0408 10.1357 16.875 10.1357ZM7.43333 14.7899L8.68333 12.2899L8.125 12.6357H11.875L11.3167 12.2899L12.5667 14.7899C12.6007 14.8674 12.6502 14.9372 12.7121 14.995C12.774 15.0528 12.8469 15.0975 12.9266 15.1262C13.0062 15.155 13.0909 15.1673 13.1754 15.1623C13.2599 15.1574 13.3426 15.1353 13.4183 15.0974C13.4941 15.0595 13.5613 15.0067 13.616 14.942C13.6707 14.8774 13.7117 14.8023 13.7365 14.7213C13.7612 14.6403 13.7693 14.5552 13.7602 14.471C13.751 14.3868 13.7249 14.3053 13.6833 14.2316L12.4333 11.7316C12.3815 11.6278 12.3019 11.5405 12.2033 11.4794C12.1046 11.4183 11.991 11.3859 11.875 11.3857H8.125C8.00901 11.3859 7.89535 11.4183 7.79675 11.4794C7.69814 11.5405 7.61848 11.6278 7.56667 11.7316L6.31667 14.2316C6.2751 14.3053 6.24896 14.3868 6.23982 14.471C6.23069 14.5552 6.23876 14.6403 6.26355 14.7213C6.28833 14.8023 6.32931 14.8774 6.38399 14.942C6.43868 15.0067 6.50593 15.0595 6.58167 15.0974C6.65741 15.1353 6.74005 15.1574 6.82459 15.1623C6.90912 15.1673 6.99378 15.155 7.07342 15.1262C7.15307 15.0975 7.22604 15.0528 7.28791 14.995C7.34978 14.9372 7.39925 14.8674 7.43333 14.7899Z" fill="#262626"/>
</svg>
