<svg width="62" height="63" viewBox="0 0 62 63" fill="none" xmlns="http://www.w3.org/2000/svg">
<mask id="mask0_55_50" style="mask-type:luminance" maskUnits="userSpaceOnUse" x="17" y="14" width="29" height="36">
<path d="M45.4166 14.3906H17V49.3004H45.4166V14.3906Z" fill="white"/>
</mask>
<g mask="url(#mask0_55_50)">
<path d="M44.5125 26.2914C44.31 26.4485 40.7352 28.4628 40.7352 32.9417C40.7352 38.1223 45.284 39.9551 45.4201 40.0005C45.3992 40.1122 44.6975 42.5105 43.0218 44.9542C41.5277 47.1046 39.9672 49.2516 37.5934 49.2516C35.2195 49.2516 34.6086 47.8726 31.8681 47.8726C29.1975 47.8726 28.248 49.297 26.0766 49.297C23.9052 49.297 22.3901 47.3071 20.6481 44.8634C18.6303 41.9938 17 37.5358 17 33.3048C17 26.5183 21.4126 22.9191 25.7554 22.9191C28.063 22.9191 29.9865 24.4342 31.4353 24.4342C32.8142 24.4342 34.9646 22.8283 37.5899 22.8283C38.5848 22.8283 42.1596 22.9191 44.5125 26.2914ZM36.3436 19.9552C37.4293 18.6671 38.1973 16.8797 38.1973 15.0923C38.1973 14.8444 38.1763 14.5931 38.131 14.3906C36.3645 14.4569 34.263 15.5671 32.9957 17.0368C32.0008 18.1678 31.0722 19.9552 31.0722 21.7671C31.0722 22.0393 31.1176 22.3116 31.1385 22.3989C31.2502 22.4199 31.4318 22.4443 31.6133 22.4443C33.1982 22.4443 35.1916 21.383 36.3436 19.9552Z" fill="black"/>
</g>
</svg>
